<svg xmlns="http://www.w3.org/2000/svg" viewBox="0 0 96 96" id="cooking-oil">
  <g>
    <rect width="36.83" height="13.62" x="29.58" y="81.38" fill="#f9a454" rx="2.77"></rect>
    <rect width="31.25" height="13.62" x="29.58" y="81.38" fill="#f9c74f" rx="2.77"></rect>
    <rect width="25.24" height="13.62" x="32.59" y="81.38" fill="#f9ea63" rx="2.77"></rect>
    <path fill="#f9a454" d="M63.88,81.38H32.12a2.55,2.55,0,0,1,0-5.09H63.88a2.55,2.55,0,0,1,0,5.09Z"></path>
    <path fill="#f9c74f" d="M58.29,81.38H32.12a2.55,2.55,0,0,1,0-5.09H58.29a2.55,2.55,0,0,1,0,5.09Z"></path>
    <path fill="#f9ea63" d="M55.29,81.38H35.13a2.55,2.55,0,0,1,0-5.09H55.29a2.55,2.55,0,0,1,0,5.09Z"></path>
    <path fill="#f9a454" d="M63.88,76.29H32.12a2.54,2.54,0,1,1,0-5.08H63.88a2.54,2.54,0,0,1,0,5.08Z"></path>
    <path fill="#f9c74f" d="M58.29,76.29H32.12a2.54,2.54,0,1,1,0-5.08H58.29a2.54,2.54,0,0,1,0,5.08Z"></path>
    <path fill="#f9ea63" d="M55.29,76.29H35.13a2.54,2.54,0,1,1,0-5.08H55.29a2.54,2.54,0,0,1,0,5.08Z"></path>
    <rect width="9.83" height="2.54" x="40.29" y="71.21" fill="#fff" rx="1.27"></rect>
    <path fill="#f9a454" d="M63.88,71.21H32.12a2.55,2.55,0,0,1,0-5.09H63.88a2.55,2.55,0,0,1,0,5.09Z"></path>
    <path fill="#f9c74f" d="M58.29,71.21H32.12a2.54,2.54,0,1,1,0-5.08H58.29a2.54,2.54,0,0,1,0,5.08Z"></path>
    <path fill="#f9ea63" d="M55.29,71.21H35.13a2.54,2.54,0,1,1,0-5.08H55.29a2.54,2.54,0,0,1,0,5.08Z"></path>
    <path fill="#fff" d="M47.58,71.21H42.83a2.54,2.54,0,0,1,0-5.08h4.75a2.54,2.54,0,1,1,0,5.08Z"></path>
    <rect width="36.83" height="27.18" x="29.58" y="38.95" fill="#ef4f36" rx="2.54"></rect>
    <rect width="31.25" height="27.18" x="29.58" y="38.95" fill="#dbdbdb" rx="2.54"></rect>
    <rect width="31.25" height="27.18" x="29.58" y="38.95" fill="#f98154" rx="2.54"></rect>
    <rect width="9.83" height="23.86" x="40.29" y="38.95" fill="#f1f2f2" rx="2.54"></rect>
    <path fill="#f9a454" d="M63.88,39H32.12a2.55,2.55,0,0,1,0-5.09H63.88a2.55,2.55,0,0,1,0,5.09Z"></path>
    <path fill="#f9c74f" d="M58.29,39H32.12a2.55,2.55,0,0,1,0-5.09H58.29a2.55,2.55,0,0,1,0,5.09Z"></path>
    <path fill="#f9ea63" d="M55.29,39H35.13a2.55,2.55,0,0,1,0-5.09H55.29a2.55,2.55,0,0,1,0,5.09Z"></path>
    <rect width="9.83" height="2.54" x="40.29" y="33.86" fill="#fff" rx="1.27"></rect>
    <path fill="#f9a454" d="M66.42,28.44v2.65a2.77,2.77,0,0,1-2.77,2.77H58.06a2.77,2.77,0,0,0,2.77-2.77V28.44a12.13,12.13,0,0,0-4.27-9.24l-9.14-7.78H53l9.15,7.78A12.13,12.13,0,0,1,66.42,28.44Z"></path>
    <path fill="#f9c74f" d="M60.83,28.44v2.65a2.77,2.77,0,0,1-2.77,2.77H32.35a2.77,2.77,0,0,1-2.77-2.77V28.44a12.13,12.13,0,0,1,4.27-9.24L43,11.42h4.42l9.14,7.78A12.13,12.13,0,0,1,60.83,28.44Z"></path>
    <path fill="#f9ea63" d="M35,30.86a2.42,2.42,0,0,1-2.42-2.42,9.13,9.13,0,0,1,3.22-7l7.46-6.34a3,3,0,0,1,3.9,0l7.46,6.34a9.15,9.15,0,0,1,3.21,7,2.42,2.42,0,0,1-2.42,2.42Z"></path>
    <path fill="#fff" d="M34,26.84a1,1,0,0,1-.95-1.32c1-2.95,2.81-4.1,5.83-6.67a1,1,0,0,1,1.3,1.52C37.11,23,35.74,23.83,35,26.16A1,1,0,0,1,34,26.84Z"></path>
    <rect width="10" height="4" x="43" y="7.42" fill="#f9a454"></rect>
    <rect width="5.78" height="4" x="43" y="7.42" fill="#f9c74f"></rect>
    <rect width="13.17" height="6.42" x="41.42" y="1" fill="#f97740" rx="1.48"></rect>
    <rect width="9.02" height="6.42" x="41.42" y="1" fill="#f9a454" rx="1.48"></rect>
    <path fill="#f9c74f" d="M47.46,3.19H44.92a1,1,0,0,0-1,1,1,1,0,0,0,1,1h2.54a1,1,0,1,0,0-2Z"></path>
    <path fill="#f9ea63" d="M52.3,54.32a4.3,4.3,0,0,1-8.6,0c0-2.37,4.3-7.87,4.3-7.87S52.3,52,52.3,54.32Z"></path>
    <path fill="#302d3d" d="M67.42,31.09V28.44a13.13,13.13,0,0,0-4.62-10L54,11V8.24a2.47,2.47,0,0,0,1.58-2.3V2.48A2.48,2.48,0,0,0,53.1,0H42.9a2.48,2.48,0,0,0-2.48,2.48V5.94A2.47,2.47,0,0,0,42,8.24V11c-1,.8-3.22,2.74-8.8,7.49a13.13,13.13,0,0,0-4.62,10v2.65a3.74,3.74,0,0,0,1.16,2.71A3.52,3.52,0,0,0,29.67,39a3.5,3.5,0,0,0-1.09,2.54V63.58a3.5,3.5,0,0,0,1.09,2.54,3.52,3.52,0,0,0,0,5.09,3.51,3.51,0,0,0,0,5.08,3.52,3.52,0,0,0,.07,5.15,3.74,3.74,0,0,0-1.16,2.71v8.07A3.77,3.77,0,0,0,32.35,96h31.3a3.77,3.77,0,0,0,3.77-3.77V84.15a3.74,3.74,0,0,0-1.16-2.71,3.52,3.52,0,0,0,.07-5.15,3.51,3.51,0,0,0,0-5.08,3.52,3.52,0,0,0,0-5.09,3.5,3.5,0,0,0,1.09-2.54V41.49A3.5,3.5,0,0,0,66.33,39a3.52,3.52,0,0,0-.07-5.15A3.74,3.74,0,0,0,67.42,31.09ZM44,10.42v-2h8v2C50.76,10.4,48.44,10.41,44,10.42ZM42.42,2.48A.47.47,0,0,1,42.9,2H53.1a.47.47,0,0,1,.48.48V5.94a.48.48,0,0,1-.48.48H42.9a.48.48,0,0,1-.48-.48Zm-11.84,26A11.12,11.12,0,0,1,34.5,20l8.87-7.54h3.68c9.63,8.2,9,7.78,9.51,7.78a1,1,0,0,0,.65-1.76l-7.08-6h2.5L61.5,20a11.12,11.12,0,0,1,3.92,8.48v2.65a1.77,1.77,0,0,1-1.77,1.77H61.4a3.68,3.68,0,0,0,.43-1.77,22.64,22.64,0,0,0-.31-5.48,1,1,0,0,0-2,.43,21.86,21.86,0,0,1,.26,5.05,1.77,1.77,0,0,1-1.77,1.77H32.35a1.77,1.77,0,0,1-1.77-1.77Zm0,8a1.55,1.55,0,0,1,1.54-1.55H58.29a1.55,1.55,0,0,1,0,3.09H32.12A1.54,1.54,0,0,1,30.58,36.41Zm0,32.26a1.55,1.55,0,0,1,1.54-1.55H58.29a1.55,1.55,0,0,1,0,3.09H32.12A1.54,1.54,0,0,1,30.58,68.67Zm0,5.08a1.54,1.54,0,0,1,1.54-1.54H58.29a1.54,1.54,0,0,1,0,3.08H32.12A1.54,1.54,0,0,1,30.58,73.75Zm1.54,6.63a1.55,1.55,0,0,1,0-3.09H58.29a1.55,1.55,0,0,1,0,3.09Zm33.3,11.84A1.77,1.77,0,0,1,63.65,94H61.48a3.46,3.46,0,0,0,.35-1.54,1,1,0,0,0-2,0A1.54,1.54,0,0,1,58.29,94H32.35a1.77,1.77,0,0,1-1.77-1.77V84.15a1.77,1.77,0,0,1,1.77-1.77H58.29a1.54,1.54,0,0,1,1.54,1.54V86.8a1,1,0,0,0,2,0c0-2.71.13-3.45-.35-4.42h2.17a1.77,1.77,0,0,1,1.77,1.77Zm0-13.39a1.55,1.55,0,0,1-1.54,1.55h-2.4a3.49,3.49,0,0,0,0-3.09h2.41A1.54,1.54,0,0,1,65.42,78.83Zm0-5.08a1.54,1.54,0,0,1-1.54,1.54h-2.4a3.51,3.51,0,0,0,0-3.08h2.4A1.54,1.54,0,0,1,65.42,73.75Zm0-5.08a1.54,1.54,0,0,1-1.54,1.54h-2.4a3.53,3.53,0,0,0,0-3.09h2.4A1.55,1.55,0,0,1,65.42,68.67Zm0-27.18V63.58a1.54,1.54,0,0,1-1.54,1.54h-2.4c.43-.88.35-1.32.35-3.66a1,1,0,1,0-2,0v2.12a1.54,1.54,0,0,1-1.54,1.54H32.12a1.54,1.54,0,0,1-1.54-1.54V41.49A1.54,1.54,0,0,1,32.12,40H58.29a1.54,1.54,0,0,1,1.54,1.54v8.3a1,1,0,1,0,2,0c0-8.9.13-8.83-.36-9.84h2.41A1.54,1.54,0,0,1,65.42,41.49Zm-1.54-6.63a1.55,1.55,0,0,1,0,3.09h-2.4a3.53,3.53,0,0,0,0-3.09Z"></path>
    <path fill="#302d3d" d="M47.21 45.84c-.75 1-4.51 5.89-4.51 8.48a5.3 5.3 0 0010.6 0c0-2.59-3.76-7.52-4.51-8.48A1 1 0 0047.21 45.84zM48 57.62a3.3 3.3 0 01-3.3-3.3c0-1.19 1.74-4 3.3-6.2 1.56 2.16 3.3 5 3.3 6.2A3.3 3.3 0 0148 57.62zM60.83 53.5a1 1 0 00-1 1v2a1 1 0 102 0v-2A1 1 0 0060.83 53.5z"></path>
    <rect width="11.63" height="4.38" x="38.5" y="85.99" fill="#fff" rx="2.19"></rect>
  </g>
</svg>
