<svg xmlns="http://www.w3.org/2000/svg" viewBox="0 0 512 512" id="steak">
  <ellipse cx="256" cy="265.49" fill="#f2f2f2" rx="250" ry="128.38"></ellipse>
  <ellipse cx="256" cy="265.49" fill="#e6e6e6" rx="192.05" ry="98.62"></ellipse>
  <path d="M256,395.89c-67.09,0-130.2-13.44-177.7-37.83C30.38,333.45,4,300.58,4,265.49s26.4-68,74.32-92.57C125.8,148.53,188.91,135.1,256,135.1s130.2,13.43,177.7,37.82C481.62,197.53,508,230.41,508,265.49s-26.4,68-74.32,92.57C386.2,382.45,323.09,395.89,256,395.89Zm0-256.76c-136.74,0-248,56.69-248,126.36S119.26,391.85,256,391.85s248-56.68,248-126.36S392.74,139.13,256,139.13Z"></path>
  <ellipse cx="256" cy="265.49" fill="none" rx="250" ry="128.38"></ellipse>
  <path fill="#c7dc51" d="M300.13,238c-5.37-8.47-5.15-19.51-2.08-29.06s8.68-18,13.79-26.67,9.87-17.8,10.94-27.78-2.28-21-10.57-26.62-21.64-3.55-25.88,5.54c-.63-5-6.62-8.14-11.43-6.7s-8,6.4-8.47,11.4c-5.88-7.47-12.2-15.27-21.08-18.67s-21-.32-24,8.7c-3.31,10,5.6,19.54,14,25.76,2.67,2,5.66,4.39,5.66,7.7,0,5.14-7.16,7.18-11.93,5.27s-8.46-6-13.33-7.62c-7.66-2.54-16.94,2.78-18.62,10.67s4.62,16.53,12.65,17.34c-7.41,4.58-15.86,11.33-14.31,19.9,1.35,7.47,10.05,11.44,17.64,11.17s14.77-3.44,22.29-4.56,16.43.56,20.17,7.16c4.68,8.25-.5,20.81,6.77,26.89,6.36,5.33,15.86.42,22.55-4.5"></path>
  <path fill="#8ec12e" d="M302.11,235.74c-4.62-7.31-4.44-16.82-1.79-25.05s7.48-15.55,11.89-23,8.51-15.35,9.43-23.95-2-18.09-9.12-22.95-18.65-3.06-22.31,4.78c-.53-4.3-5.7-7-9.85-5.78s-6.9,5.51-7.29,9.83c-5.07-6.44-10.52-13.17-18.18-16.1s-18.08-.27-20.66,7.5c-2.85,8.58,4.83,16.84,12.1,22.21,2.3,1.69,4.88,3.78,4.88,6.64,0,4.43-6.17,6.18-10.28,4.54s-7.29-5.18-11.5-6.57c-6.6-2.19-14.6,2.39-16.05,9.2s4,14.25,10.91,14.94c-6.39,3.95-13.67,9.77-12.34,17.16,1.17,6.44,8.66,9.86,15.21,9.63s12.73-3,19.21-3.93,14.17.48,17.4,6.17c4,7.11-.44,17.94,5.83,23.18,5.48,4.59,13.67.36,19.44-3.87"></path>
  <path d="M269,252.19a11.88,11.88,0,0,1-7.87-2.79c-4.75-4-4.94-10-5.13-15.86-.14-4.3-.27-8.37-2.09-11.57-3.42-6-11.9-7.09-18.13-6.16a80.84,80.84,0,0,0-9,2.05,61,61,0,0,1-13.5,2.52c-8.36.31-18.11-4.09-19.69-12.82s6-15.69,11.45-19.52a17.16,17.16,0,0,1-6.76-5.57,16.38,16.38,0,0,1,18.2-25.09,30,30,0,0,1,7.6,4.21,31.39,31.39,0,0,0,5.86,3.45,8.82,8.82,0,0,0,7.56-.66,3.23,3.23,0,0,0,1.6-2.73c0-2.32-2.51-4.36-4.85-6.09-12.46-9.19-17.7-19.14-14.76-28a15.84,15.84,0,0,1,8.62-9.32,23.65,23.65,0,0,1,18-.64c8.19,3.14,14.34,9.84,19.35,16a14.33,14.33,0,0,1,8.9-8.82,11.54,11.54,0,0,1,9.49,1.51,10.55,10.55,0,0,1,2.93,2.78,17.92,17.92,0,0,1,9.05-5.56,21.71,21.71,0,0,1,17.55,2.69c8.21,5.58,12.7,16.77,11.44,28.51-1.11,10.37-6,19.87-11.21,28.59-.79,1.35-1.6,2.69-2.41,4-4.26,7.07-8.67,14.39-11.19,22.23-3.31,10.29-2.63,20.26,1.86,27.37a2,2,0,1,1-3.41,2.15c-5.13-8.11-6-19.32-2.29-30.75,2.66-8.29,7.2-15.81,11.58-23.08l2.39-4c4.94-8.33,9.65-17.37,10.67-27,1.1-10.28-2.71-20-9.7-24.75a17.65,17.65,0,0,0-14.22-2.14,13.09,13.09,0,0,0-8.7,6.88,2,2,0,0,1-3.83-.61,5.67,5.67,0,0,0-2.71-4,7.66,7.66,0,0,0-6.14-1c-3.72,1.12-6.62,5.09-7,9.65a2,2,0,0,1-3.59,1.07c-5.44-6.91-11.6-14.74-20.22-18a19.5,19.5,0,0,0-14.82.51,12,12,0,0,0-6.52,6.95c-3.17,9.56,7,18.83,13.33,23.5,3.13,2.31,6.47,5.12,6.48,9.32a7.22,7.22,0,0,1-3.37,6.08,12.8,12.8,0,0,1-11.33,1.06,35,35,0,0,1-6.63-3.87,27.21,27.21,0,0,0-6.59-3.71,12.35,12.35,0,1,0-5.13,24.09,2,2,0,0,1,.86,3.72c-10,6.22-14.43,12.05-13.39,17.83,1.14,6.26,8.81,9.75,15.59,9.51,4.21-.15,8.28-1.24,12.6-2.39a85,85,0,0,1,9.46-2.14c7.48-1.12,17.8.35,22.23,8.16,2.31,4.07,2.46,8.83,2.61,13.43.17,5.41.32,10.08,3.69,12.9,5.34,4.47,13.86,0,20.06-4.57a2,2,0,1,1,2.39,3.25C279.63,249.78,273.83,252.19,269,252.19Z"></path>
  <path fill="#c7dc51" d="M186.15,235.73c-10-.72-18.75-7.44-24.61-15.59s-9.36-17.69-13.27-26.93-8.46-18.52-15.85-25.3-18.24-10.63-27.7-7.31S89,175.9,93.81,184.72c-4.38-2.47-10.48.48-12.18,5.21s.39,10.25,4.15,13.58c-9.51.3-19.54.74-27.55,5.87S45.52,226.07,51,233.84c6,8.57,19,7.09,29.06,4,3.17-1,6.89-1.94,9.56,0,4.13,3,1.52,10-2.85,12.72s-9.85,3.25-14,6.21c-6.59,4.65-7.82,15.27-2.47,21.31s16,6.1,21.46.12c-.72,8.69-.31,19.49,7.51,23.34,6.82,3.35,15.17-1.29,19.46-7.56s6-13.93,9.57-20.64,10.21-12.89,17.75-12c9.41,1.14,16.44,12.76,25.65,10.53,8.06-2,9.75-12.52,9.77-20.81"></path>
  <path fill="#8ec12e" d="M183.11,235.32c-7.86-.57-16-7.36-20.61-13.75s-7.35-13.9-10.42-21.16-3.37-17.23-9.18-22.56-14.32-8.34-21.75-5.73-12.33,12-8.57,18.93c-3.44-1.93-8.22.39-9.56,4.1s.3,8,3.25,10.66c-7.46.23-15.34.59-21.63,4.61s-10,13.11-5.68,19.21c4.75,6.73,15,5.57,22.83,3.14,2.48-.77,5.41-1.53,7.5,0,3.25,2.39,1.2,7.87-2.24,10s-7.73,2.54-11,4.87c-5.17,3.66-6.14,12-1.94,16.74s12.6,4.79,16.85.09c-.56,6.82-.24,15.31,5.9,18.33,5.36,2.63,7.49-7.43,10.86-12.35s9.15-4.52,11.94-9.79,8-10.13,13.94-9.41c7.39.89,12.91,10,20.14,8.26,6.33-1.53,7.66-9.82,7.68-16.34"></path>
  <path d="M104.14,304.71a13,13,0,0,1-5.81-1.35c-8.06-4-9-14.16-8.89-20.8a16.82,16.82,0,0,1-8.5,2.13,16.38,16.38,0,0,1-9.38-29.55,30.19,30.19,0,0,1,7.9-3.61,31,31,0,0,0,6.25-2.66,8.81,8.81,0,0,0,4-6.48,3.19,3.19,0,0,0-1.25-2.91c-1.87-1.37-5-.57-7.77.29-14.79,4.57-25.91,2.87-31.3-4.77A15.82,15.82,0,0,1,47,222.54a23.64,23.64,0,0,1,10.17-14.86c7.39-4.72,16.43-5.69,24.41-6a14.34,14.34,0,0,1-1.82-12.4,11.62,11.62,0,0,1,6.85-6.75,10.64,10.64,0,0,1,4-.69,17.9,17.9,0,0,1,.9-10.59,21.7,21.7,0,0,1,12.59-12.52c9.36-3.29,21-.26,29.73,7.72,7.68,7.05,12.4,16.67,16.35,26,.61,1.44,1.2,2.89,1.8,4.33,3.16,7.63,6.43,15.53,11.24,22.22,6.32,8.77,14.74,14.15,23.13,14.75a2,2,0,0,1-.29,4c-9.58-.69-19.1-6.67-26.11-16.42-5.09-7.07-8.44-15.18-11.69-23-.6-1.43-1.19-2.87-1.79-4.3-3.78-8.91-8.25-18.07-15.37-24.6-7.61-7-17.69-9.68-25.66-6.89a17.6,17.6,0,0,0-10.17,10.17,13,13,0,0,0,.36,11.08,2,2,0,0,1-2.76,2.72,5.69,5.69,0,0,0-4.83-.19,7.56,7.56,0,0,0-4.46,4.34c-1.32,3.66.15,8.34,3.58,11.39a2,2,0,0,1-1.27,3.52c-8.79.27-18.75.58-26.52,5.55a19.42,19.42,0,0,0-8.39,12.23,12,12,0,0,0,1.71,9.37c5.81,8.23,19.3,5.56,26.82,3.23,3.72-1.15,8-2.16,11.35.33a7.19,7.19,0,0,1,2.89,6.31,12.8,12.8,0,0,1-5.87,9.75,35.32,35.32,0,0,1-7,3,27.16,27.16,0,0,0-6.9,3.09A12.16,12.16,0,0,0,81,280.66H81a12.28,12.28,0,0,0,9.17-3.79,2,2,0,0,1,3.5,1.52c-1,11.78,1.13,18.76,6.4,21.36,5.71,2.8,13.08-1.3,16.91-6.89,2.38-3.48,3.92-7.4,5.56-11.56a85.43,85.43,0,0,1,3.89-8.88c3.55-6.69,10.86-14.12,19.77-13,4.65.56,8.57,3.26,12.36,5.88,4.46,3.07,8.3,5.72,12.57,4.69,6.77-1.64,8.22-11.16,8.24-18.86a2,2,0,0,1,2-2h0a2,2,0,0,1,2,2c0,13.11-3.95,21-11.32,22.77-6,1.46-11-2-15.81-5.29-3.54-2.45-6.89-4.76-10.55-5.2-6.88-.82-12.78,5.37-15.73,10.93a83.09,83.09,0,0,0-3.7,8.47,61.71,61.71,0,0,1-6,12.36C116.74,300.41,110.45,304.71,104.14,304.71Z"></path>
  <path fill="#c7dc51" d="M328.8,252.72c5.51-8.38,5.49-19.42,2.59-29s-8.36-18.19-13.32-26.91-9.55-18-10.44-28,2.65-20.94,11-26.44,21.7-3.16,25.78,6c.71-5,6.75-8,11.54-6.5s7.9,6.53,8.26,11.55c6-7.37,12.47-15.06,21.41-18.31s21,.06,23.82,9.13c3.13,10-6,19.44-14.5,25.51-2.7,1.92-5.73,4.29-5.79,7.6-.1,5.14,7,7.3,11.83,5.47s8.57-5.85,13.47-7.38c7.7-2.4,16.88,3.08,18.42,11s-4.91,16.45-13,17.11c7.33,4.71,15.66,11.61,14,20.15-1.49,7.45-10.25,11.26-17.84,10.86s-14.71-3.7-22.2-5-16.44.26-20.3,6.8c-4.82,8.16.14,20.81-7.24,26.77-6.46,5.21-15.86.13-22.47-4.9"></path>
  <path fill="#8ec12e" d="M330.32,250.05c4.33-6.58,3.89-17.18,1.62-24.73s-6.57-14.28-10.46-21.13-11.63-13.15-12.33-21,2.08-16.44,8.67-20.76,17-2.48,20.24,4.71c.56-3.9,5.31-6.3,9.07-5.1s6.2,5.13,6.49,9.07c4.72-5.79,9.79-11.83,16.81-14.37s16.47,0,18.7,7.17c2.46,7.86-4.67,15.26-11.38,20-2.12,1.5-4.5,3.36-4.55,6-.08,4,5.52,5.73,9.29,4.29s6.73-4.59,10.58-5.79c6.05-1.89,13.25,2.41,14.47,8.63s-3.86,12.92-10.17,13.44c5.75,3.7,12.29,9.12,10.95,15.83-1.16,5.85-10.45,1.42-16.4,1.11s-9.15,4.51-15,3.52-12.91.21-15.94,5.35c-3.79,6.41.11,16.34-5.68,21-5.07,4.1-12.46.11-17.65-3.84"></path>
  <path d="M360,267.41c-4.9,0-10.74-2.51-17.3-7.5a2,2,0,0,1,2.44-3.21c6.13,4.66,14.57,9.3,20,4.93,3.41-2.76,3.65-7.43,3.92-12.83.22-4.61.46-9.36,2.84-13.39,4.57-7.73,14.91-9,22.37-7.77a86.54,86.54,0,0,1,9.43,2.31c4.29,1.23,8.34,2.39,12.55,2.61,6.77.37,14.51-3,15.75-9.23,1.15-5.76-3.13-11.67-13.07-18.06a2,2,0,0,1,.93-3.71,12.35,12.35,0,1,0-4.71-24.17,26.84,26.84,0,0,0-6.65,3.59,34.9,34.9,0,0,1-6.7,3.75,12.8,12.8,0,0,1-11.31-1.27,7.17,7.17,0,0,1-3.26-6.13c.09-4.55,4.19-7.46,6.64-9.2,6.43-4.57,16.75-13.65,13.74-23.26a12,12,0,0,0-6.39-7.06,19.48,19.48,0,0,0-14.81-.78c-8.67,3.15-15,10.87-20.53,17.68a2,2,0,0,1-3.58-1.13c-.33-4.57-3.15-8.59-6.86-9.77a7.57,7.57,0,0,0-6.15.91,5.7,5.7,0,0,0-2.79,3.95,2,2,0,0,1-3.83.54,13.07,13.07,0,0,0-8.58-7,17.62,17.62,0,0,0-14.26,1.89c-7.07,4.63-11,14.28-10.13,24.57.85,9.62,5.4,18.73,10.19,27.15.76,1.35,1.54,2.69,2.32,4,4.25,7.35,8.65,14.94,11.17,23.28,3.48,11.5,2.44,22.69-2.84,30.71a2,2,0,0,1-3.37-2.21c4.62-7,5.48-17,2.35-27.33-2.38-7.89-6.66-15.28-10.8-22.43-.78-1.36-1.57-2.71-2.34-4.07-5-8.81-9.77-18.4-10.7-28.78-1.05-11.76,3.64-22.87,11.94-28.3a21.72,21.72,0,0,1,17.6-2.39,17.88,17.88,0,0,1,8.95,5.73,10.87,10.87,0,0,1,3-2.74A11.57,11.57,0,0,1,356.6,140a14.32,14.32,0,0,1,8.74,9c5.13-6.12,11.39-12.71,19.63-15.7a23.68,23.68,0,0,1,18,.95,15.84,15.84,0,0,1,8.45,9.47c2.79,8.93-2.62,18.78-15.25,27.75-2.37,1.69-4.9,3.68-4.95,6a3.22,3.22,0,0,0,1.55,2.76,8.83,8.83,0,0,0,7.55.79,30.82,30.82,0,0,0,5.91-3.34,30.32,30.32,0,0,1,7.68-4.08A16.18,16.18,0,0,1,431.64,199a17,17,0,0,1-6.86,5.45c5.37,3.92,12.87,10.91,11.11,19.72S424.34,237,416,236.59a61.18,61.18,0,0,1-13.45-2.76,82.82,82.82,0,0,0-9-2.21c-6.21-1-14.71-.13-18.24,5.84-1.87,3.17-2.07,7.23-2.29,11.54-.29,5.83-.59,11.87-5.41,15.76A11.85,11.85,0,0,1,360,267.41Z"></path>
  <path fill="#d45945" d="M428.36,254.78a41.27,41.27,0,0,1-1.86,5.54c-6.14,14.05-55.39,71.78-127.11,65s-95.2-63.7-115.4-73.83c0,0-23.31-13.74-43-20-22.19-7.06-27.14-25.34-21.43-42.9,20.86-23.63,67.18-34.93,88.2-35.52,24-.66,135.38,3.72,183.68,38.8C416.07,209.81,425.74,233.69,428.36,254.78Z"></path>
  <path fill="#e67062" d="M428.36,254.78a41.27,41.27,0,0,1-1.86,5.54c-2.14,4.86-9.49,15.07-21.25,26,7.89-8.33,12.9-15.54,14.61-19.44a40.85,40.85,0,0,0,1.87-5.55c-2.62-21.09-12.29-45-36.91-62.89C336.51,163.36,225.14,159,201.14,159.64c-19,.56-58.82,9.83-81.65,29.18.05,0,0-.15.08-.21,20.86-23.63,67.18-34.93,88.2-35.52,24-.66,135.38,3.72,183.68,38.8C416.07,209.81,425.74,233.69,428.36,254.78Z"></path>
  <path fill="#d14f42" d="M428.36,254.78a41.27,41.27,0,0,1-1.86,5.54c-6.14,14.05-55.39,71.78-127.11,65s-95.2-63.7-115.4-73.83c0,0-23.31-13.74-43-20-22.19-7.06-27.14-25.34-21.43-42.9a52.84,52.84,0,0,1,4.4-4.46c3.46,7.18,10.09,13.09,20.69,16.47,19.68,6.22,43,20,43,20,20.19,10.13,43.67,67,115.39,73.82,61.24,5.81,106.1-35.4,121.68-56.36A96.76,96.76,0,0,1,428.36,254.78Z"></path>
  <path d="M311,327.86c-3.85,0-7.79-.17-11.81-.56-51.55-4.89-78.93-35.68-97-56.05-7.54-8.49-13.5-15.19-19.06-18l-.12-.06c-.23-.14-23.35-13.7-42.58-19.78-10.26-3.26-17.51-8.92-21.57-16.82-4.13-8.06-4.55-18.23-1.16-28.62a1.92,1.92,0,0,1,.4-.71c21.55-24.41,69-35.62,89.66-36.2,25-.7,136.62,4.11,184.92,39.18,27,19.67,35.43,45.81,37.72,64.27a2,2,0,0,1-.05.77,41.31,41.31,0,0,1-2,5.83c-3.53,8.09-18.17,26.21-39.65,41.15C371.35,314.35,344.45,327.86,311,327.86ZM185,249.7c6.23,3.15,12.4,10.09,20.21,18.87,18.75,21.09,44.44,50,94.41,54.72,37.72,3.58,68-11.25,86.8-24.32,20.61-14.33,35-32,38.27-39.46a37.4,37.4,0,0,0,1.66-4.88c-2.26-17.64-10.38-42.43-36-61.11-47.39-34.41-157.69-39.09-182.44-38.41-19.93.56-65.61,11.26-86.47,34.52-2.91,9.23-2.54,18.14,1,25.13s10,11.91,19.2,14.83C161,235.71,183.37,248.77,185,249.7Z"></path>
  <path fill="#b14538" d="M428.36,254.78c2.6,20.27-1.23,37.91-4.37,45-6.39,14.58-57.47,74.41-131.85,67.34s-98.71-66-119.65-76.52c0,0-24.54-13.27-44.64-20.67S97.94,230,112.45,199.2a44.24,44.24,0,0,1,7.12-10.59c-5.71,17.56-.76,35.84,21.43,42.9,19.68,6.22,43,20,43,20,20.2,10.13,43.68,67,115.4,73.83s121-50.93,127.11-65A41.27,41.27,0,0,0,428.36,254.78Z"></path>
  <path d="M304.21,369.75c-4,0-8.09-.18-12.26-.58-53.44-5-81.82-37-100.59-58.07-7.82-8.81-14-15.76-19.77-18.65-.3-.16-24.71-13.32-44.43-20.59-8.46-3.13-15.4-10.45-19.55-20.6-6.36-15.58-5.24-35.36,3-52.91a45.81,45.81,0,0,1,7.45-11.09,2,2,0,0,1,3.41,2c-3,9.37-2.72,18.44.92,25.53,3.55,6.92,10,11.91,19.2,14.83C161,235.72,183.38,248.77,185,249.7c6.23,3.15,12.4,10.09,20.21,18.87,18.75,21.09,44.44,50,94.41,54.72,37.71,3.58,68-11.25,86.8-24.32,20.61-14.33,35-32,38.27-39.46a38,38,0,0,0,1.77-5.26,2,2,0,0,1,3.94.27c2.81,21.94-1.73,39.76-4.52,46.11-3.68,8.39-18.88,27.16-41.13,42.63C366.74,355.75,338.86,369.75,304.21,369.75ZM115.61,197.5c-.48.85-.92,1.7-1.33,2.56-7.79,16.55-8.88,35.12-2.93,49.68,3.71,9.09,9.82,15.6,17.21,18.34,20,7.37,44.64,20.66,44.89,20.79,6.41,3.22,12.81,10.42,20.92,19.55,19.46,21.88,46.1,51.85,98,56.74,39.14,3.71,70.59-11.66,90.08-25.21,21.37-14.86,36.34-33.21,39.73-40.94,2.61-5.93,5.65-19.47,4.95-35.41-5,8.92-18.89,25.11-38.4,38.68-19.34,13.46-50.56,28.72-89.49,25-51.55-4.89-78.93-35.68-97-56.05-7.54-8.49-13.5-15.19-19.06-18l-.12-.06c-.23-.14-23.35-13.7-42.58-19.78-10.26-3.26-17.51-8.92-21.57-16.82A34,34,0,0,1,115.61,197.5Z"></path>
  <path d="M161.46 202.86a2 2 0 01-1.11-3.7c.32-.21 32.76-21.21 87.16-31.95a2 2 0 01.78 4c-53.57 10.57-85.41 31.15-85.72 31.36A2.05 2.05 0 01161.46 202.86zM187.66 222.6a2 2 0 01-.93-3.81c.53-.27 53.36-27.25 107.89-35.81a2 2 0 11.63 4c-53.9 8.46-106.15 35.14-106.67 35.41A2.05 2.05 0 01187.66 222.6zM215.4 245.77a2 2 0 01-.87-3.84c.69-.33 69.47-33 141.51-44.07a2 2 0 11.61 4c-71.43 11-139.7 43.4-140.38 43.73A2 2 0 01215.4 245.77zM256.1 278.23a2 2 0 01-.76-3.88c1-.4 97.21-39.81 142.33-45.32a2 2 0 11.49 4c-44.59 5.45-140.33 44.65-141.29 45A2.07 2.07 0 01256.1 278.23z"></path>
  <path d="M300.12 285.09a1.64 1.64 0 01-.38 0 2 2 0 01-1.6-2.36C308.33 230.1 318 193.36 318.07 193a2 2 0 013.9 1c-.1.36-9.71 37-19.87 89.44A2 2 0 01300.12 285.09zM343.77 284.48a2.14 2.14 0 01-.5-.06 2 2 0 01-1.46-2.45c13.05-51.15 22.51-75.05 22.6-75.29a2 2 0 013.75 1.5c-.1.23-9.47 23.93-22.44 74.78A2 2 0 01343.77 284.48zM259.16 251.3l-.27 0a2 2 0 01-1.73-2.27c4.89-36.44 12-68.71 12.07-69a2 2 0 013.93.87c-.07.32-7.14 32.43-12 68.7A2 2 0 01259.16 251.3zM218.1 229.86H218a2 2 0 01-1.93-2.1c1.83-42.35 5.63-60.06 5.79-60.79a2 2 0 012.4-1.54 2 2 0 011.54 2.4c0 .18-3.89 18.18-5.7 60.11A2 2 0 01218.1 229.86z"></path>
  <circle cx="147.49" cy="301.35" r="41.47" fill="#8ec12e" transform="rotate(-67.5 147.49 301.347)"></circle>
  <circle cx="147.49" cy="301.35" r="32.6" fill="#c7dc51" transform="rotate(-67.5 147.49 301.347)"></circle>
  <path d="M147.49,344.84A43.49,43.49,0,1,1,191,301.35,43.54,43.54,0,0,1,147.49,344.84Zm0-82.94A39.46,39.46,0,1,0,187,301.35,39.49,39.49,0,0,0,147.49,261.9Z"></path>
  <path fill="#8ec12e" d="M147.49 276.85c-1.2 0-2.18 2.27-2.18 5.06s1 5.06 2.18 5.06 2.18-2.27 2.18-5.06S148.7 276.85 147.49 276.85zM147.49 315.73c-1.2 0-2.18 2.27-2.18 5.06s1 5.06 2.18 5.06 2.18-2.26 2.18-5.06S148.7 315.73 147.49 315.73zM172 301.35c0-1.2-2.26-2.18-5.06-2.18s-5.06 1-5.06 2.18 2.27 2.18 5.06 2.18S172 302.56 172 301.35zM133.11 301.35c0-1.2-2.27-2.18-5.06-2.18s-5.06 1-5.06 2.18 2.27 2.18 5.06 2.18S133.11 302.56 133.11 301.35zM164.82 284c-.86-.86-3.15.06-5.12 2s-2.89 4.27-2 5.12 3.15-.06 5.12-2S165.67 284.88 164.82 284zM137.32 311.52c-.85-.85-3.14.06-5.12 2s-2.89 4.26-2 5.12 3.14-.06 5.12-2S138.17 312.37 137.32 311.52zM164.82 318.68c.85-.86-.06-3.15-2-5.12s-4.27-2.89-5.12-2 .06 3.15 2 5.12S164 319.53 164.82 318.68zM137.32 291.18c.85-.85-.06-3.14-2-5.12s-4.27-2.89-5.12-2 .06 3.14 2 5.12S136.47 292 137.32 291.18z"></path>
  <circle cx="188.96" cy="329.92" r="41.47" fill="#8ec12e" transform="rotate(-67.5 188.963 329.913)"></circle>
  <circle cx="188.96" cy="329.92" r="32.6" fill="#c7dc51" transform="rotate(-67.6 189.531 331.288)"></circle>
  <path d="M189,373.4a43.49,43.49,0,1,1,43.49-43.48A43.53,43.53,0,0,1,189,373.4Zm0-82.94a39.46,39.46,0,1,0,39.46,39.46A39.5,39.5,0,0,0,189,290.46Z"></path>
  <path fill="#8ec12e" d="M189 305.42c-1.2 0-2.18 2.26-2.18 5.05s1 5.06 2.18 5.06 2.19-2.26 2.19-5.06S190.17 305.42 189 305.42zM189 344.3c-1.2 0-2.18 2.26-2.18 5.06s1 5.06 2.18 5.06 2.19-2.27 2.19-5.06S190.17 344.3 189 344.3zM213.46 329.92c0-1.21-2.26-2.19-5.06-2.19s-5.05 1-5.05 2.19 2.26 2.18 5.05 2.18S213.46 331.12 213.46 329.92zM174.58 329.92c0-1.21-2.27-2.19-5.06-2.19s-5.06 1-5.06 2.19 2.27 2.18 5.06 2.18S174.58 331.12 174.58 329.92zM206.29 312.59c-.86-.85-3.15.06-5.12 2s-2.89 4.26-2 5.12 3.15-.06 5.12-2S207.14 313.44 206.29 312.59zM178.79 340.09c-.85-.86-3.14.05-5.12 2s-2.88 4.27-2 5.12 3.14-.06 5.12-2S179.64 340.94 178.79 340.09zM206.29 347.24c.85-.85-.06-3.14-2-5.12s-4.26-2.89-5.12-2 .06 3.14 2 5.12S205.43 348.09 206.29 347.24zM178.79 319.75c.85-.86-.06-3.15-2-5.12s-4.27-2.89-5.12-2 .06 3.15 2 5.12S177.94 320.6 178.79 319.75z"></path>
</svg>
