<svg xmlns="http://www.w3.org/2000/svg" viewBox="0 0 68 68" id="wheat">
  <path fill="#fcb72b" d="M44.87 10.29c.62-.31 1.24-.61 1.88-.88A16.64 16.64 0 0 0 59 6.56C55.39 3.77 48.79 5 46.46 8.81c-.83.36-1.65.75-2.45 1.18 2.43-2.2 4.37-5 4.28-7.77-6 1.14-9.36 6.52-7.79 10A31.88 31.88 0 0 0 36.14 16c1.64-2.83 2.59-6 1.64-8.67-5.28 2.88-6.87 9-4.32 11.83a32 32 0 0 0-3 5c.71-3.26.65-6.61-1.06-8.83-4.09 4.29-3.84 10.61-.73 12.65A68.25 68.25 0 0 0 26 59.37a.59.59 0 0 0 1.16-.18 66.87 66.87 0 0 1 2.66-31 11.22 11.22 0 0 0 8.82-5.83 6 6 0 0 0-7.3 1.47A31.92 31.92 0 0 1 34 19.47a10.72 10.72 0 0 0 10.4-2.61 6 6 0 0 0-7.35-.86 31.16 31.16 0 0 1 3.88-3.28 10.71 10.71 0 0 0 10.71.68 6.09 6.09 0 0 0-6.77-3.11Z"></path>
  <path fill="#ffc850" d="M66 17.86c-3-3.45-9.69-3.56-12.73-.32-.89.19-1.77.41-2.64.67 2.82-1.67 5.27-4 5.75-6.75-6.11-.09-10.48 4.5-9.63 8.19a31.42 31.42 0 0 0-5 2.82c2.17-2.45 3.75-5.4 3.35-8.17-5.75 1.76-8.54 7.47-6.61 10.73a31.74 31.74 0 0 0-4 4.29c1.35-3.06 2-6.35.73-8.87-4.86 3.38-5.89 9.63-3.22 12.25-2.59 5.78-4.55 12.35-5.57 22.47h1.24c1.24-10.9 3.7-19.11 5.4-22a11.19 11.19 0 0 0 9.81-3.94 6 6 0 0 0-7.44 0 32 32 0 0 1 3.53-3.73 10.69 10.69 0 0 0 10.66-.5 6 6 0 0 0-7-2.34 31.55 31.55 0 0 1 4.46-2.43 10.68 10.68 0 0 0 10.35 2.81 6.08 6.08 0 0 0-6-4.37c.67-.19 1.34-.35 2-.49A16.63 16.63 0 0 0 66 17.86Z"></path>
  <path fill="#4f974e" d="M40.71 37.22c-12-2.62-12 21.25-12 21.25l10.17 7.31S36.5 47 39.43 41.6c2.25-4.13 7.22 4.93 9.39 9.3a.7.7 0 0 0 1.32-.27c.19-3.96-.66-11.5-9.43-13.41zM2.78 7.66a.48.48 0 0 0-.7.63c3.73 5.92 13.8 23 16.42 38.24 0 0 3.74-23.76-15.72-38.87z"></path>
  <path fill="#ffc850" d="M43.44 3.7c-3.53-1.59-8.76.74-9.94 4.3-.62.46-1.22 1-1.8 1.46 1.58-2.3 2.64-5 2-7.28C29 4.35 27.25 9.46 29.23 12a26.88 26.88 0 0 0-2.88 4c.8-2.67 1-5.51-.35-7.51-3.8 3.43-3.91 8.84-1.24 10.66a26.46 26.46 0 0 0-1.52 4.74c-.06-2.84-.77-5.61-2.63-7.11-2.54 4.36-1.09 9.55 1.89 10.62a58.25 58.25 0 0 0 4 26.58.5.5 0 0 0 .46.31.43.43 0 0 0 .19 0 .49.49 0 0 0 .27-.65 57 57 0 0 1-3.9-26.2 9.53 9.53 0 0 0 6.16-6.57 5.15 5.15 0 0 0-5.76 2.66 26 26 0 0 1 1.39-4.16 9.1 9.1 0 0 0 8.08-4.21 5.16 5.16 0 0 0-6.27.72 26.48 26.48 0 0 1 2.57-3.48 9.13 9.13 0 0 0 9-1.55 5.18 5.18 0 0 0-6.21-1.22c.44-.38.9-.75 1.37-1.1a14.13 14.13 0 0 0 9.59-4.83Z"></path>
  <path fill="#5ba558" d="M30.1 54.78C17.43 34.42 19.33 11 20.39 3.36a.5.5 0 0 0-.93-.31C.67 35.8 27.09 65.78 27.09 65.78h11.77c-3.64-9.2-6.39-7.18-8.76-11Z"></path>
</svg>
